<svg width="123" height="32" viewBox="0 0 123 32" fill="none" xmlns="http://www.w3.org/2000/svg">
<path d="M28 28L4 28L4 12.4L28 28Z" fill="#677489"/>
<path d="M4 27.9995L28 12.4L28 28L4 27.9995Z" fill="#677489"/>
<path fill-rule="evenodd" clip-rule="evenodd" d="M15.9998 20.1999L4 27.9995L28 28L15.9998 20.1999Z" fill="#111729"/>
<path d="M24.3996 12.4C24.3996 11.2969 24.1823 10.2046 23.7602 9.18546C23.3381 8.16632 22.7193 7.24031 21.9393 6.4603C21.1593 5.68029 20.2333 5.06155 19.2141 4.63941C18.195 4.21727 17.1027 4 15.9996 4C14.8965 4 13.8042 4.21727 12.7851 4.63941C11.7659 5.06155 10.8399 5.68029 10.0599 6.4603C9.2799 7.24032 8.66116 8.16632 8.23902 9.18546C7.81688 10.2046 7.59961 11.2969 7.59961 12.4L10.658 12.4C10.658 11.6985 10.7962 11.0039 11.0647 10.3559C11.3331 9.70781 11.7265 9.11896 12.2226 8.62295C12.7186 8.12694 13.3074 7.73348 13.9555 7.46504C14.6036 7.1966 15.2981 7.05844 15.9996 7.05844C16.7011 7.05844 17.3957 7.1966 18.0437 7.46504C18.6918 7.73348 19.2807 8.12694 19.7767 8.62295C20.2727 9.11896 20.6661 9.70781 20.9346 10.3559C21.203 11.0039 21.3412 11.6985 21.3412 12.4H24.3996Z" fill="#111729"/>
<path d="M34.54 22C34.444 22 34.354 21.964 34.27 21.892C34.198 21.808 34.162 21.718 34.162 21.622C34.162 21.562 34.168 21.508 34.18 21.46L38.41 9.904C38.446 9.772 38.518 9.658 38.626 9.562C38.746 9.454 38.908 9.4 39.112 9.4H41.776C41.98 9.4 42.136 9.454 42.244 9.562C42.364 9.658 42.442 9.772 42.478 9.904L46.69 21.46C46.714 21.508 46.726 21.562 46.726 21.622C46.726 21.718 46.684 21.808 46.6 21.892C46.528 21.964 46.438 22 46.33 22H44.116C43.936 22 43.798 21.958 43.702 21.874C43.618 21.778 43.564 21.694 43.54 21.622L42.838 19.786H38.032L37.348 21.622C37.324 21.694 37.27 21.778 37.186 21.874C37.102 21.958 36.958 22 36.754 22H34.54ZM38.77 17.194H42.118L40.426 12.442L38.77 17.194ZM50.1736 22C50.0416 22 49.9336 21.958 49.8496 21.874C49.7656 21.79 49.7236 21.682 49.7236 21.55V12.226H46.5196C46.3876 12.226 46.2796 12.184 46.1956 12.1C46.1116 12.004 46.0696 11.896 46.0696 11.776V9.85C46.0696 9.718 46.1116 9.61 46.1956 9.526C46.2796 9.442 46.3876 9.4 46.5196 9.4H56.2036C56.3356 9.4 56.4436 9.442 56.5276 9.526C56.6116 9.61 56.6536 9.718 56.6536 9.85V11.776C56.6536 11.896 56.6116 12.004 56.5276 12.1C56.4436 12.184 56.3356 12.226 56.2036 12.226H52.9996V21.55C52.9996 21.682 52.9576 21.79 52.8736 21.874C52.7896 21.958 52.6816 22 52.5496 22H50.1736ZM56.3763 22C56.2803 22 56.1903 21.964 56.1063 21.892C56.0343 21.808 55.9983 21.718 55.9983 21.622C55.9983 21.562 56.0043 21.508 56.0163 21.46L60.2463 9.904C60.2823 9.772 60.3543 9.658 60.4623 9.562C60.5823 9.454 60.7443 9.4 60.9483 9.4H63.6123C63.8163 9.4 63.9723 9.454 64.0803 9.562C64.2003 9.658 64.2783 9.772 64.3143 9.904L68.5263 21.46C68.5503 21.508 68.5623 21.562 68.5623 21.622C68.5623 21.718 68.5203 21.808 68.4363 21.892C68.3643 21.964 68.2743 22 68.1663 22H65.9523C65.7723 22 65.6343 21.958 65.5383 21.874C65.4543 21.778 65.4003 21.694 65.3763 21.622L64.6743 19.786H59.8683L59.1843 21.622C59.1603 21.694 59.1063 21.778 59.0223 21.874C58.9383 21.958 58.7943 22 58.5903 22H56.3763ZM60.6063 17.194H63.9543L62.2623 12.442L60.6063 17.194ZM78.234 22.18C77.034 22.18 76.038 22.012 75.246 21.676C74.454 21.328 73.854 20.878 73.446 20.326C73.038 19.774 72.822 19.186 72.798 18.562C72.798 18.466 72.834 18.382 72.906 18.31C72.99 18.226 73.086 18.184 73.194 18.184H75.462C75.63 18.184 75.756 18.214 75.84 18.274C75.936 18.334 76.02 18.412 76.092 18.508C76.188 18.688 76.32 18.862 76.488 19.03C76.668 19.198 76.896 19.336 77.172 19.444C77.46 19.54 77.814 19.588 78.234 19.588C78.93 19.588 79.452 19.48 79.8 19.264C80.16 19.048 80.34 18.754 80.34 18.382C80.34 18.118 80.244 17.902 80.052 17.734C79.86 17.554 79.548 17.398 79.116 17.266C78.696 17.122 78.132 16.978 77.424 16.834C76.512 16.642 75.732 16.396 75.084 16.096C74.448 15.784 73.962 15.382 73.626 14.89C73.29 14.386 73.122 13.762 73.122 13.018C73.122 12.286 73.326 11.632 73.734 11.056C74.154 10.48 74.736 10.03 75.48 9.706C76.224 9.382 77.106 9.22 78.126 9.22C78.954 9.22 79.68 9.328 80.304 9.544C80.94 9.76 81.474 10.048 81.906 10.408C82.338 10.768 82.662 11.152 82.878 11.56C83.106 11.956 83.226 12.346 83.238 12.73C83.238 12.826 83.202 12.916 83.13 13C83.058 13.072 82.968 13.108 82.86 13.108H80.484C80.352 13.108 80.238 13.084 80.142 13.036C80.046 12.988 79.962 12.91 79.89 12.802C79.818 12.538 79.626 12.31 79.314 12.118C79.014 11.914 78.618 11.812 78.126 11.812C77.598 11.812 77.184 11.908 76.884 12.1C76.596 12.28 76.452 12.562 76.452 12.946C76.452 13.186 76.53 13.396 76.686 13.576C76.854 13.756 77.124 13.912 77.496 14.044C77.88 14.176 78.402 14.314 79.062 14.458C80.154 14.662 81.036 14.92 81.708 15.232C82.38 15.532 82.872 15.928 83.184 16.42C83.496 16.9 83.652 17.506 83.652 18.238C83.652 19.054 83.418 19.762 82.95 20.362C82.494 20.95 81.858 21.4 81.042 21.712C80.226 22.024 79.29 22.18 78.234 22.18ZM90.134 22C89.366 22 88.7 21.88 88.136 21.64C87.584 21.388 87.158 21.004 86.858 20.488C86.558 19.96 86.408 19.282 86.408 18.454V14.998H85.004C84.872 14.998 84.758 14.956 84.662 14.872C84.578 14.788 84.536 14.68 84.536 14.548V13.09C84.536 12.958 84.578 12.85 84.662 12.766C84.758 12.682 84.872 12.64 85.004 12.64H86.408V9.67C86.408 9.538 86.45 9.43 86.534 9.346C86.63 9.262 86.738 9.22 86.858 9.22H88.946C89.078 9.22 89.186 9.262 89.27 9.346C89.354 9.43 89.396 9.538 89.396 9.67V12.64H91.646C91.778 12.64 91.886 12.682 91.97 12.766C92.054 12.85 92.096 12.958 92.096 13.09V14.548C92.096 14.68 92.054 14.788 91.97 14.872C91.886 14.956 91.778 14.998 91.646 14.998H89.396V18.202C89.396 18.61 89.474 18.934 89.63 19.174C89.786 19.414 90.05 19.534 90.422 19.534H91.808C91.94 19.534 92.048 19.576 92.132 19.66C92.216 19.744 92.258 19.852 92.258 19.984V21.55C92.258 21.682 92.216 21.79 92.132 21.874C92.048 21.958 91.94 22 91.808 22H90.134ZM98.2663 22.18C97.2583 22.18 96.4063 22.018 95.7103 21.694C95.0263 21.37 94.4983 20.908 94.1263 20.308C93.7663 19.696 93.5623 18.97 93.5143 18.13C93.5023 17.89 93.4963 17.62 93.4963 17.32C93.4963 17.008 93.5023 16.738 93.5143 16.51C93.5623 15.658 93.7783 14.932 94.1623 14.332C94.5463 13.732 95.0803 13.27 95.7643 12.946C96.4603 12.622 97.2943 12.46 98.2663 12.46C99.2503 12.46 100.084 12.622 100.768 12.946C101.464 13.27 102.004 13.732 102.388 14.332C102.772 14.932 102.988 15.658 103.036 16.51C103.048 16.738 103.054 17.008 103.054 17.32C103.054 17.62 103.048 17.89 103.036 18.13C102.988 18.97 102.778 19.696 102.406 20.308C102.046 20.908 101.518 21.37 100.822 21.694C100.138 22.018 99.2863 22.18 98.2663 22.18ZM98.2663 19.984C98.8063 19.984 99.1963 19.822 99.4363 19.498C99.6883 19.174 99.8323 18.688 99.8683 18.04C99.8803 17.86 99.8863 17.62 99.8863 17.32C99.8863 17.02 99.8803 16.78 99.8683 16.6C99.8323 15.964 99.6883 15.484 99.4363 15.16C99.1963 14.824 98.8063 14.656 98.2663 14.656C97.7383 14.656 97.3483 14.824 97.0963 15.16C96.8443 15.484 96.7063 15.964 96.6823 16.6C96.6703 16.78 96.6643 17.02 96.6643 17.32C96.6643 17.62 96.6703 17.86 96.6823 18.04C96.7063 18.688 96.8443 19.174 97.0963 19.498C97.3483 19.822 97.7383 19.984 98.2663 19.984ZM105.365 22C105.233 22 105.125 21.958 105.041 21.874C104.957 21.79 104.915 21.682 104.915 21.55V13.09C104.915 12.97 104.957 12.868 105.041 12.784C105.125 12.688 105.233 12.64 105.365 12.64H107.435C107.567 12.64 107.675 12.688 107.759 12.784C107.843 12.868 107.885 12.97 107.885 13.09V13.81C108.209 13.438 108.593 13.15 109.037 12.946C109.493 12.742 110.003 12.64 110.567 12.64H111.359C111.479 12.64 111.581 12.682 111.665 12.766C111.761 12.85 111.809 12.958 111.809 13.09V14.944C111.809 15.064 111.761 15.172 111.665 15.268C111.581 15.352 111.479 15.394 111.359 15.394H109.613C109.121 15.394 108.737 15.532 108.461 15.808C108.197 16.072 108.065 16.45 108.065 16.942V21.55C108.065 21.682 108.017 21.79 107.921 21.874C107.837 21.958 107.729 22 107.597 22H105.365ZM117.428 22.18C116.012 22.18 114.884 21.796 114.044 21.028C113.204 20.26 112.766 19.12 112.73 17.608C112.73 17.524 112.73 17.416 112.73 17.284C112.73 17.152 112.73 17.05 112.73 16.978C112.766 16.03 112.976 15.22 113.36 14.548C113.756 13.864 114.296 13.348 114.98 13C115.676 12.64 116.486 12.46 117.41 12.46C118.466 12.46 119.336 12.67 120.02 13.09C120.716 13.51 121.238 14.08 121.586 14.8C121.934 15.52 122.108 16.342 122.108 17.266V17.698C122.108 17.83 122.06 17.938 121.964 18.022C121.88 18.106 121.778 18.148 121.658 18.148H115.898C115.898 18.16 115.898 18.178 115.898 18.202C115.898 18.226 115.898 18.25 115.898 18.274C115.91 18.622 115.97 18.94 116.078 19.228C116.186 19.516 116.354 19.744 116.582 19.912C116.81 20.08 117.086 20.164 117.41 20.164C117.65 20.164 117.848 20.128 118.004 20.056C118.172 19.972 118.31 19.882 118.418 19.786C118.526 19.678 118.61 19.588 118.67 19.516C118.778 19.396 118.862 19.324 118.922 19.3C118.994 19.264 119.102 19.246 119.246 19.246H121.478C121.598 19.246 121.694 19.282 121.766 19.354C121.85 19.414 121.886 19.504 121.874 19.624C121.862 19.828 121.76 20.074 121.568 20.362C121.376 20.65 121.094 20.938 120.722 21.226C120.362 21.502 119.906 21.73 119.354 21.91C118.802 22.09 118.16 22.18 117.428 22.18ZM115.898 16.366H118.94V16.33C118.94 15.946 118.88 15.61 118.76 15.322C118.652 15.034 118.478 14.812 118.238 14.656C118.01 14.5 117.734 14.422 117.41 14.422C117.086 14.422 116.81 14.5 116.582 14.656C116.366 14.812 116.198 15.034 116.078 15.322C115.958 15.61 115.898 15.946 115.898 16.33V16.366Z" fill="#111729"/>
</svg>
